<?xml version="1.0" encoding="UTF-8"?>
<svg width="979px" height="979px" viewBox="0 0 979 979" version="1.1" xmlns="http://www.w3.org/2000/svg" xmlns:xlink="http://www.w3.org/1999/xlink">
    <!-- Generator: Sketch 44.1 (41455) - http://www.bohemiancoding.com/sketch -->
    <title>beefchart</title>
    <desc>Created with Sketch.</desc>
    <defs></defs>
    <g id="Page-1" stroke="none" stroke-width="1" fill="none" fill-rule="evenodd">
        <g id="beefchart" transform="translate(70.000000, 224.000000)" fill-rule="nonzero">
            <path d="M33,347.3 L37.4,348.7 L36.8,344.9 C36.6,343.9 36.3,341.9 36.6,341.9 C41.4,331.9 40.8,322.9 39.6,312.9 C38.6,303.9 37.6,293.9 36.3,284.9 L44,284.9 C45,284.9 46,283.9 46.7,282.9 C45.7,281.9 45,280.9 44.1,280.9 C42.1,279.9 39.1,280.9 36.1,280.9 C31.1,234.9 27.1,188.9 28.1,142.9 C27.1,155.9 25.1,168.9 24.1,181.9 C23.1,195.9 23.1,209.9 23.1,223.9 C23.1,230.9 24.1,237.9 25.1,244.9 C26.1,250.9 25.1,256.9 26.1,262.9 L29.1,286.9 C29.1,289.9 28.1,292.9 28.1,295.9 L28.1,299.9 L30.1,317.9 L29.1,317.9 L25.1,309.9 C25.1,311.9 24.1,314.9 24.1,317.9 L14.1,318.9 C13.1,325.9 13.1,333.9 6.1,339.9 C6.1,335.9 7.1,331.9 6.1,328.9 C6.1,327.9 6.1,325.9 5.1,324.9 C0.1,323.9 3.1,319.9 3.1,316.9 C2.1,316.9 1.1,317.9 0.1,317.9 L0.1,316.9 C3.1,301.9 -0.9,285.9 9.1,271.9 C10.1,270.9 10.1,268.9 10.1,266.9 C9.1,256.9 10.1,246.9 13.1,237.9 C14.1,235.9 14.1,233.9 14.1,231.9 C10.1,207.9 10.1,183.9 12.1,160.9 C13.1,140.9 16.1,119.9 19.1,99.9 C24.1,65.9 46.1,45.9 81.1,42.9 L83.1,42.9 C90.1,41.9 90.1,41.9 92.1,48.9 C92.1,49.9 93.1,50.9 94.1,51.9 C95.1,49.9 95.1,48.9 95.1,47.9 C95.1,46.9 95.1,44.9 94.1,41.9 C103.1,42.9 111.1,42.9 118.1,44.9 C144.1,49.9 171.1,55.9 198.1,56.9 C210.1,57.9 221.1,57.9 233.1,57.9 L241.1,57.9 L244.1,63.9 L247.1,56.9 C289.1,54.9 332.1,61.9 375.1,65.9 L373.1,72.9 C372.1,74.9 372.1,76.9 372.1,79.9 C377.1,75.9 377.1,69.9 380.1,63.9 C390.1,63.9 400.1,64.3 410.1,63.9 C430.1,63.9 449.1,60.9 469.1,56.9 C489.1,52.9 509.1,52.9 528.1,58.3 C548.1,64.3 568.1,61.3 589.1,57.3 L593.1,57.3 L593.1,70.3 L594.1,70.8 C594.9,69.5 596.1,67.8 596.1,66.8 C597.1,55.8 597.1,55.8 607.5,52.8 C627.5,48.3 647.5,43.8 667.5,39.5 C669.5,39.5 671.2,38.5 673,37.5 L700,27.5 C701.3,26.5 703,25.5 704,24.5 C710.5,18.5 716,11.5 723,5.5 C734,-3.5 744,-0.5 750.4,11.5 C751.4,14 752.6,16.5 753.4,18.9 C754.4,22.4 756.4,22.9 760.4,21.9 C766.4,18.9 772.4,16.5 779.4,14.9 C787.4,12.9 789.6,14.9 788.6,23.3 C787.6,28.3 785.6,33.3 784.6,38.3 C783.6,40.3 783.6,41.3 785.6,43.3 C792.6,51.3 798.6,59.3 797.6,71.3 C797.6,72.3 798.6,73.3 799.6,74.3 C808.6,82.3 817.6,90.3 822.6,101.3 C825.6,108.3 831.6,112.3 838.6,115.3 C855.6,122.3 858.9,131 851.6,147.8 C848.6,153.8 845.6,158.1 838.6,159.3 C837.6,160.3 836.2,161.3 835.6,162.3 C827.6,173.3 816,178.3 803.2,170.3 C799.2,168.3 795.2,168.3 790.2,170 C772.2,175.4 754.2,174 736.2,169 C728.2,167 721.2,163.6 713.6,161.5 C710.6,160.5 707.6,161.3 705.6,162.5 C702.6,164.5 699.6,167.5 696.6,170.5 C684.6,185.2 673.6,199.5 658.6,211.2 C654.6,214.2 652.6,217.2 651.6,221.2 C648.6,229.5 645.6,238.2 643.6,246.5 L629.6,246.5 C628.6,246.5 626.6,248.5 625.6,248.5 C626.6,249.5 627.6,250.5 628.6,250.5 L640.6,250.5 L637.6,258.5 C631.6,268.5 625.6,278.5 614.6,285.5 C611.6,288.3 608.6,293.5 607.6,298.5 C602.6,322.5 589.6,341.5 570.6,355.5 C565.6,359.5 559.6,360.5 554.6,362.2 C551.6,363.2 548.4,363.2 546.4,359.7 C546.4,358.7 544.4,359.1 542.4,359.7 C546.4,363.7 544.4,366.7 543,369.7 C539,380.7 535,390.7 531,401.7 C530,404.7 531,408.7 529,412.7 C528,415.7 525.7,417.7 523,420.7 C520,423.7 516,425.7 511.8,423.7 C511.8,422.9 509.8,424.7 509.8,424.7 C509.8,425.7 510.8,426.7 511.8,426.7 C513.8,427.1 515.3,427.7 517.4,427.9 C514.4,442.9 518.4,457.3 520.4,471.9 C522,482.9 527.4,492.2 537.4,498.9 C540.4,501.2 543.4,504.3 545.9,507.6 C547.9,510.6 546.9,512.6 543.9,513.6 C534.9,517.6 525.3,519.6 515.4,518.6 L511.4,518.6 C505.2,515.6 498.4,513.6 491.4,515.3 C487.4,516.3 485.4,512.3 486.4,509.1 L490.4,484.1 C493.4,465.1 494.4,446.1 493.4,426.9 L493.4,423.9 L500.4,423.9 L500.4,422.9 C498.4,422.9 497.4,421.9 495.4,421.4 C494.4,420.4 492.4,420.4 492.4,418.4 L486.4,388.4 C483.4,370.8 483.4,353.4 485.4,335.4 C486.4,335.4 488.4,335.4 488.4,334.4 C488.4,334.4 488.4,332 488,331.4 C480.6,327.4 473,326.4 465,329.4 C441.5,337.4 418,344.4 395,351.4 C382,355.4 369,358.4 356,361.4 C353,357.4 354.5,351.4 351,348.4 L349,348.7 L351,361.7 C336,364.7 321,365.7 306,365.7 C261,363.7 223.6,343.7 189,317.7 L186,314.7 C183,312.7 183,310.7 185,307.7 C186,306.1 187,304.7 188,302.7 C188,301.7 187.7,300.7 187,299.7 L185,300.7 C184,301.7 183,303.1 183,304.7 L181,307.7 L172,299.7 C166,294.7 159.5,291.7 152,296.7 C151,297.4 149,296.7 148,296.7 L141,293.7 C139.7,293.3 138,293.7 136.5,293.7 L139.5,296.7 L146.5,299.7 C131.3,321.7 115.5,343.7 99.5,365.7 C92.3,374.7 82.5,382.7 74.5,391.7 C72.2,393.7 69.5,396.7 67.5,399.7 L63.5,397.7 L63.2,401.7 C63.2,403.7 63.9,405.7 63.2,407.4 C51.2,424.4 47.2,443.7 45.2,463.8 C43.2,478.4 42.2,492.8 45.2,506.8 C46.2,515.8 48.8,524.2 56.7,529.8 L61.7,533.8 C53.7,534.8 47.7,536.8 41.7,537.2 C30.7,538.2 20.7,538.6 10.7,533.6 C6.7,531.6 4.7,529.6 5.7,525.6 C5.7,519.6 5.7,514.6 2.7,509.6 C-0.3,503.6 1.7,496.6 5.7,490.6 C8.7,484.6 11.7,477.6 11.7,469.6 L11.7,468.6 C8.7,450.6 15.7,433.6 18.7,416.6 C20.5,407.6 19.7,397.6 20.7,388.6 C21.7,379.6 22.7,369.6 24.7,360.6 C26.7,351.6 31.7,345.6 38.7,340.6 L33,347.3 Z M828,155 L832.6,155.6 C838.6,155.8 843.3,151.2 843.1,145.2 C843.1,144.2 842.1,142.6 841.1,142.5 C837.1,141.7 833.1,141.5 828.1,141 C831.1,150.7 831.1,150.7 829.1,155 L828,155 Z M747.7,73 L746.7,74.4 C749.7,78 752.4,82 756.1,85 C758.1,86.4 761.1,85.4 764.1,85.5 C764.1,82.8 763.1,79.9 762.1,77.5 C761.1,76.1 759.1,75.2 758.1,74.7 C755.1,73.7 752.1,73.4 749.1,72.9 L747.7,73 Z" id="Shape" fill="#000000"></path>
            <path d="M123.5,341.3 C123.1,349 123.5,356.9 122,364.3 C119.3,378.8 115.7,393.1 112.4,407.3 C109.9,418.6 110.4,429.8 112.9,440.8 C114.9,453.8 117.9,467.2 121.9,479.8 C124.9,489.4 129.9,498.2 134.9,506.8 C135.9,509.4 139.9,510.5 143.9,512.2 C146.9,514.4 150.9,516.2 154.9,518.6 C158.9,520.9 158.9,522.6 154.9,525.2 C147.9,530.9 138.9,532.8 130.9,533.2 C120.9,533.7 110.9,533.4 100.9,532.5 C90.9,531.7 86.9,525 89.9,514.7 C94.9,498.9 93.9,483.7 86.9,468.2 C78.9,450 72.9,431 66.9,412.2 C65.9,409.2 66.9,407.4 68.9,405.6 C84.9,391 100.9,374.9 111.9,355.6 C114.9,351 116.9,346 118.9,341.2 L119.9,341.2 L123.5,341.3 Z M477.2,515.6 C462.2,521.6 449.2,515.9 436,508.6 C438.2,503.6 438,500 432.6,497.2 C428.8,495.2 429.6,490.4 432,487.8 C441,477.8 443,465.3 444.7,452.8 C446.2,443.4 446.2,433.6 447,424 C447.4,419.3 446,415.5 443.8,411.4 C442.3,408.8 442,405.2 442.2,402 C442.8,394.8 444.7,387.8 444.8,380.6 C445,368.8 444.1,357 443.6,344.8 C451.3,341.5 459.2,338.1 467.8,337.8 C473.8,337.4 475.8,339.8 474.8,345.8 C472.2,358.8 474.4,371.8 476,384.8 C477.3,394.6 479.3,404.3 480.8,414.2 C481,415.6 480.8,417.7 479.8,418.8 C469.5,430.4 464.8,443.8 466.5,459.5 C467.9,472 469.1,484.5 471.2,496.9 C472.2,502.9 474.9,507.9 477.2,514.9 L477.2,515.6 Z" id="Shape" fill="#000000"></path>
            <path d="M828,155 C830.2,150.7 830.2,150.7 827.6,141 C832.3,141.5 836.6,141.8 840.9,142.5 C840.9,142.5 842.9,144.2 842.9,145.2 C842.9,151.2 837.9,155.8 831.9,155.6 C829.9,155.6 828.9,155.3 826.9,155.1 L828,155 Z M747.7,73 C750.7,73.4 753.9,74 757,74.8 C758.7,75.3 760.8,76.2 761.5,77.6 C762.7,79.9 762.9,82.9 763.5,85.6 C761,85.6 757.5,86.4 756.1,85.1 C753.1,83.1 750.1,78.1 747.1,75.1 L748.1,74.1 L747.7,73 Z" id="Shape" fill="#FFFFFF"></path>
        </g>
    </g>
</svg>