<?xml version="1.0" encoding="UTF-8"?>
<svg width="24px" height="24px" viewBox="0 0 24 24" version="1.1" xmlns="http://www.w3.org/2000/svg" xmlns:xlink="http://www.w3.org/1999/xlink">
    <!-- Generator: Sketch 46.2 (44496) - http://www.bohemiancoding.com/sketch -->
    <title>cross-white</title>
    <desc>Created with Sketch.</desc>
    <defs></defs>
    <g id="Page-1" stroke="none" stroke-width="1" fill="none" fill-rule="evenodd">
        <g id="cross-white" transform="translate(-3.000000, -3.000000)" fill-rule="nonzero" fill="#FFFFFF">
            <path d="M6.41539714,16.4285714 C5.63369486,16.4285714 5,15.7944789 5,15 L5,15 C5,14.2110219 5.64425029,13.5714286 6.41539714,13.5714286 L13.5714286,13.5714286 L13.5714286,6.41539714 C13.5714286,5.63369486 14.2055211,5 15,5 L15,5 C15.7889781,5 16.4285714,5.64425029 16.4285714,6.41539714 L16.4285714,13.5714286 L23.5846029,13.5714286 C24.3663051,13.5714286 25,14.2055211 25,15 L25,15 C25,15.7889781 24.3557497,16.4285714 23.5846029,16.4285714 L16.4285714,16.4285714 L16.4285714,23.5846029 C16.4285714,24.3663051 15.7944789,25 15,25 L15,25 C14.2110219,25 13.5714286,24.3557497 13.5714286,23.5846029 L13.5714286,16.4285714 L6.41539714,16.4285714 Z" id="Shape" transform="translate(15.000000, 15.000000) rotate(45.000000) translate(-15.000000, -15.000000) "></path>
        </g>
    </g>
</svg>