<?xml version="1.0" encoding="UTF-8"?>
<svg width="18px" height="18px" viewBox="0 0 18 18" version="1.1" xmlns="http://www.w3.org/2000/svg" xmlns:xlink="http://www.w3.org/1999/xlink">
    <!-- Generator: Sketch 44.1 (41455) - http://www.bohemiancoding.com/sketch -->
    <title>location-symbol-lilac</title>
    <desc>Created with Sketch.</desc>
    <defs></defs>
    <g id="Page-1" stroke="none" stroke-width="1" fill="none" fill-rule="evenodd">
        <g id="location-symbol-lilac" transform="translate(4.000000, 2.000000)" fill="#7986CB">
            <path d="M5,0 C2.24272727,0 0,2.312 0,5.153 C0,5.894 0.147272727,6.603 0.437272727,7.259 C1.68727273,10.077 4.08454545,13.055 4.78909091,13.9 C4.84090909,13.963 4.91909091,14 5,14 C5.08181818,14 5.15818182,13.963 5.21090909,13.9 C5.91545455,13.055 8.31181818,10.078 9.56181818,7.259 C9.85219902,6.60303155 10.0020943,5.88260109 10,5.153 C10,2.312 7.75545455,0 5,0 Z M5,7.875 C3.62181818,7.875 2.5,6.697 2.5,5.249 C2.5,3.802 3.62181818,2.625 5,2.625 C6.37818182,2.625 7.5,3.802 7.5,5.249 C7.5,6.697 6.37818182,7.875 5,7.875 Z" id="Shape"></path>
        </g>
    </g>
</svg>