<svg xmlns="http://www.w3.org/2000/svg" xmlns:xlink="http://www.w3.org/1999/xlink" width="40" height="40" viewBox="0 0 40 40">
    <defs>
        <path id="a" d="M3.208 3.073H.169V.01h3.039z"/>
        <path id="c" d="M3.076 3.073H.036V.011h3.04v3.062z"/>
        <path id="e" d="M0 13.739V.038h21.904v13.7H0z"/>
    </defs>
    <g fill="none" fill-rule="evenodd">
        <circle cx="20" cy="20" r="20" fill="#74C176"/>
        <g transform="translate(15.406 26.89)">
            <mask id="b" fill="#fff">
                <use xlink:href="#a"/>
            </mask>
            <path fill="#FFF" d="M1.688.01C.851.01.17.697.17 1.542c0 .844.682 1.531 1.52 1.531.837 0 1.519-.687 1.519-1.531C3.208.697 2.526.01 1.688.01" mask="url(#b)"/>
        </g>
        <g transform="translate(23.03 26.89)">
            <mask id="d" fill="#fff">
                <use xlink:href="#c"/>
            </mask>
            <path fill="#FFF" d="M1.556.01C.718.01.036.698.036 1.543c0 .844.682 1.531 1.52 1.531s1.52-.687 1.52-1.531C3.076.697 2.394.01 1.556.01" mask="url(#d)"/>
        </g>
        <g transform="translate(8 12.182)">
            <mask id="f" fill="#fff">
                <use xlink:href="#e"/>
            </mask>
            <path fill="#FFF" d="M21.658 4.232c-.24-.326-.635-.513-1.079-.513H5.211L4.803 2.27C4.457 1.041 3.268.038 2.153.038H.537A.539.539 0 0 0 0 .577c0 .297.24.54.536.54h1.617c.646 0 1.403.677 1.62 1.448l2.747 9.768c.221.788 1.031 1.405 1.844 1.405h9.606c.81 0 1.623-.614 1.852-1.397l2.02-6.922c.125-.43.059-.862-.184-1.188" mask="url(#f)"/>
        </g>
    </g>
</svg>
