<?xml version="1.0" encoding="UTF-8"?>
<svg width="24px" height="24px" viewBox="0 0 24 24" version="1.1" xmlns="http://www.w3.org/2000/svg" xmlns:xlink="http://www.w3.org/1999/xlink">
    <g id="Page-1" stroke="none" stroke-width="1" fill="none" fill-rule="evenodd">
        <g id="plus" transform="translate(3.000000, 3.000000)" fill="#ffffff" fill-rule="nonzero">
            <path d="M1.27385743,10.2857143 C0.570325371,10.2857143 0,9.71503097 0,9 L0,9 C0,8.28991967 0.579825257,7.71428571 1.27385743,7.71428571 L7.71428571,7.71428571 L7.71428571,1.27385743 C7.71428571,0.570325371 8.28496903,0 9,0 L9,0 C9.71008033,0 10.2857143,0.579825257 10.2857143,1.27385743 L10.2857143,7.71428571 L16.7261426,7.71428571 C17.4296746,7.71428571 18,8.28496903 18,9 L18,9 C18,9.71008033 17.4201747,10.2857143 16.7261426,10.2857143 L10.2857143,10.2857143 L10.2857143,16.7261426 C10.2857143,17.4296746 9.71503097,18 9,18 L9,18 C8.28991967,18 7.71428571,17.4201747 7.71428571,16.7261426 L7.71428571,10.2857143 L1.27385743,10.2857143 Z"></path>
        </g>
    </g>
</svg>