<?xml version="1.0" encoding="UTF-8"?>
<svg width="72px" height="72px" viewBox="0 0 72 72" version="1.1" xmlns="http://www.w3.org/2000/svg" xmlns:xlink="http://www.w3.org/1999/xlink">
    <!-- Generator: Sketch 44.1 (41455) - http://www.bohemiancoding.com/sketch -->
    <title>13d</title>
    <desc>Created with Sketch.</desc>
    <defs>
        <linearGradient x1="50%" y1="-110.546875%" x2="50%" y2="50%" id="linearGradient-1">
            <stop stop-color="#EAEAEA" offset="0%"></stop>
            <stop stop-color="#D0D0D0" offset="100%"></stop>
        </linearGradient>
    </defs>
    <g id="Weather-Icons" stroke="none" stroke-width="1" fill="none" fill-rule="evenodd">
        <g id="13d">
            <g transform="translate(3.000000, 11.000000)">
                <path d="M22.3333333,32 C17.1786667,32 13,27.8213333 13,22.6666667 C13,17.512 17.1786667,13.3333333 22.3333333,13.3333333 C22.3333333,8.91533333 25.9153333,5.33333333 30.3333333,5.33333333 C32.7286667,5.33333333 34.8673333,6.39466667 36.3333333,8.06266667 C37.9653333,3.37333333 42.4213333,0 47.6666667,0 C54.294,0 59.6666667,5.37266667 59.6666667,12 C59.6666667,12.196 59.6546667,12.3893333 59.646,12.5833333 C63.544,13.9466667 66.3333333,17.6253333 66.3333333,22 C66.3333333,27.54 61.874,32 56.3333333,32 L39,32 L22.3333333,32 Z" id="Light-Cloud" fill="#FFFFFF"></path>
                <path d="M7,32 C3.134,32 0,28.866 0,25 C0,21.134 3.134,18 7,18 C7,14.6865 9.6865,12 13,12 C14.7965,12 16.4005,12.796 17.5,14.047 C18.724,10.53 22.066,8 26,8 C30.9705,8 35,12.0295 35,17 C35,17.147 34.991,17.292 34.9845,17.4375 C37.908,18.46 40,21.219 40,24.5 C40,28.655 36.6555,32 32.5,32 L19.5,32 L7,32 Z" id="Dark-Cloud" fill="url(#linearGradient-1)" transform="translate(20.000000, 20.000000) scale(-1, 1) translate(-20.000000, -20.000000) "></path>
                <path d="M25,33 L25,36.6 L22.5,34.1 L21.1,35.5 L25,39.5 L25,41 L23.5,41 L19.5,36.999 L18.1,38.5 L20.6,41 L17,41 L17,41 C16.4477153,41 16,41.4477153 16,42 L16,42 L16,42 C16,42.5522847 16.4477153,43 17,43 L20.6,43 L18.1,45.5 L19.5,46.9 L23.5,43 L25,43 L25,44.5 L21.1,48.5 L22.5,49.9 L25,47.4 L25,51 L25,51 C25,51.5522847 25.4477153,52 26,52 L26,52 L26,52 C26.5522847,52 27,51.5522847 27,51 L27,47.4 L29.5,49.9 L31,48.5 L27,44.5 L27,43 L28.5,43 L32.5,46.9 L33.9,45.5 L31.401,43 L35,43 L35,43 C35.5522847,43 36,42.5522847 36,42 L36,42 L36,42 C36,41.4477153 35.5522847,41 35,41 L31.401,41 L33.9,38.5 L32.5,36.999 L28.5,41 L27,41 L27,39.5 L31,35.5 L29.5,34.1 L27,36.6 L27,33 L27,33 C27,32.4477153 26.5522847,32 26,32 L26,32 L26,32 C25.4477153,32 25,32.4477153 25,33 Z" id="Page-1" fill="#77C0F0"></path>
                <path d="M42,22 L42,25.6 L39.5,23.1 L38.1,24.5 L42,28.5 L42,30 L40.5,30 L36.5,25.999 L35.1,27.5 L37.6,30 L34,30 L34,30 C33.4477153,30 33,30.4477153 33,31 L33,31 L33,31 C33,31.5522847 33.4477153,32 34,32 L37.6,32 L35.1,34.5 L36.5,35.9 L40.5,32 L42,32 L42,33.5 L38.1,37.5 L39.5,38.9 L42,36.4 L42,40 L42,40 C42,40.5522847 42.4477153,41 43,41 L43,41 L43,41 C43.5522847,41 44,40.5522847 44,40 L44,36.4 L46.5,38.9 L48,37.5 L44,33.5 L44,32 L45.5,32 L49.5,35.9 L50.9,34.5 L48.401,32 L52,32 L52,32 C52.5522847,32 53,31.5522847 53,31 L53,31 L53,31 C53,30.4477153 52.5522847,30 52,30 L48.401,30 L50.9,27.5 L49.5,25.999 L45.5,30 L44,30 L44,28.5 L48,24.5 L46.5,23.1 L44,25.6 L44,22 L44,22 C44,21.4477153 43.5522847,21 43,21 L43,21 L43,21 C42.4477153,21 42,21.4477153 42,22 Z" id="Page-1-Copy" fill="#77C0F0"></path>
            </g>
        </g>
    </g>
</svg>