<?xml version="1.0" encoding="UTF-8"?>
<svg width="72px" height="72px" viewBox="0 0 72 72" version="1.1" xmlns="http://www.w3.org/2000/svg" xmlns:xlink="http://www.w3.org/1999/xlink">
    <!-- Generator: Sketch 44.1 (41455) - http://www.bohemiancoding.com/sketch -->
    <title>10d</title>
    <desc>Created with Sketch.</desc>
    <defs>
        <linearGradient x1="6.57474508%" y1="6.48982806%" x2="93.5330342%" y2="93.9532646%" id="linearGradient-1">
            <stop stop-color="#FFC671" offset="0%"></stop>
            <stop stop-color="#FFAF38" offset="100%"></stop>
        </linearGradient>
        <path d="M25,10.5230769 C15.9307692,10.5230769 8.52307692,17.9307692 8.52307692,27 C8.52307692,36.0692308 15.9307692,43.4769231 25,43.4769231 C34.0692308,43.4769231 41.4769231,36.0692308 41.4769231,27 C41.4769231,17.9307692 34.0692308,10.5230769 25,10.5230769 Z" id="path-2"></path>
        <filter x="-16.7%" y="-16.7%" width="133.4%" height="133.4%" filterUnits="objectBoundingBox" id="filter-3">
            <feMorphology radius="5" operator="erode" in="SourceAlpha" result="shadowSpreadInner1"></feMorphology>
            <feOffset dx="-4" dy="-6" in="shadowSpreadInner1" result="shadowOffsetInner1"></feOffset>
            <feComposite in="shadowOffsetInner1" in2="SourceAlpha" operator="arithmetic" k2="-1" k3="1" result="shadowInnerInner1"></feComposite>
            <feColorMatrix values="0 0 0 0 1   0 0 0 0 0.722150843   0 0 0 0 0.308850221  0 0 0 1 0" type="matrix" in="shadowInnerInner1"></feColorMatrix>
        </filter>
        <polygon id="path-4" points="0 20.1692938 0 0.183667612 13.7099129 0.183667612 13.7099129 20.1692938"></polygon>
        <linearGradient x1="50%" y1="-110.546875%" x2="50%" y2="50%" id="linearGradient-6">
            <stop stop-color="#EAEAEA" offset="0%"></stop>
            <stop stop-color="#D0D0D0" offset="100%"></stop>
        </linearGradient>
    </defs>
    <g id="Weather-Icons" stroke="none" stroke-width="1" fill="none" fill-rule="evenodd">
        <g id="10d">
            <g transform="translate(3.000000, 0.000000)">
                <g>
                    <g id="01d" stroke-width="1" transform="translate(5.000000, 6.000000)">
                        <g id="Sun" fill-rule="nonzero">
                            <g id="Shape">
                                <use fill="url(#linearGradient-1)" fill-rule="evenodd" xlink:href="#path-2"></use>
                                <use fill="black" fill-opacity="1" filter="url(#filter-3)" xlink:href="#path-2"></use>
                            </g>
                            <g id="Group-7" fill="#FFC164">
                                <path d="M25,5.88461538 C25.4846154,5.88461538 25.9,5.46923077 25.9,4.98461538 L25.9,1.10769231 C25.9,0.623076923 25.4846154,0.207692308 25,0.207692308 C24.5153846,0.207692308 24.1,0.623076923 24.1,1.10769231 L24.1,4.98461538 C24.1,5.46923077 24.5153846,5.88461538 25,5.88461538 Z" id="Shape"></path>
                                <path d="M15.7923077,6.99230769 C16,7.47692308 16.4846154,7.68461538 16.9692308,7.47692308 C17.4538462,7.26923077 17.6615385,6.78461538 17.4538462,6.3 L15.9307692,2.76923077 C15.7230769,2.28461538 15.2384615,2.07692308 14.7538462,2.28461538 C14.2692308,2.49230769 14.0615385,2.97692308 14.2692308,3.46153846 L15.7923077,6.99230769 Z" id="Shape"></path>
                                <path d="M8.8,12.0461538 C9.14615385,12.3923077 9.7,12.3923077 10.0461538,12.0461538 C10.3923077,11.7 10.3923077,11.1461538 10.0461538,10.8 L7.27692308,8.03076923 C6.93076923,7.68461538 6.37692308,7.68461538 6.03076923,8.03076923 C5.68461538,8.37692308 5.68461538,8.93076923 6.03076923,9.27692308 L8.8,12.0461538 Z" id="Shape"></path>
                                <path d="M4.99230769,17.7923077 L1.39230769,16.2692308 C0.907692308,16.0615385 0.423076923,16.2692308 0.215384615,16.7538462 C0.00769230769,17.2384615 0.215384615,17.7230769 0.7,17.9307692 L4.3,19.4538462 C4.78461538,19.6615385 5.26923077,19.4538462 5.47692308,18.9692308 C5.68461538,18.4846154 5.47692308,17.9307692 4.99230769,17.7923077 Z" id="Shape"></path>
                                <path d="M50.8923077,26.1 L47.0153846,26.1 C46.5307692,26.1 46.1153846,26.5153846 46.1153846,27 C46.1153846,27.4846154 46.5307692,27.9 47.0153846,27.9 L50.8923077,27.9 C51.3769231,27.9 51.7923077,27.4846154 51.7923077,27 C51.7923077,26.5153846 51.3769231,26.1 50.8923077,26.1 Z" id="Shape"></path>
                                <path d="M42.6538462,8.1 L39.8846154,10.8692308 C39.5384615,11.2153846 39.5384615,11.7692308 39.8846154,12.1153846 C40.2307692,12.4615385 40.7846154,12.4615385 41.1307692,12.1153846 L43.9,9.34615385 C44.2461538,9 44.2461538,8.44615385 43.9,8.1 C43.5538462,7.75384615 43,7.75384615 42.6538462,8.1 Z" id="Shape"></path>
                                <path d="M33.1,7.47692308 C33.5846154,7.68461538 34.0692308,7.47692308 34.2769231,6.99230769 L35.8,3.39230769 C36.0076923,2.90769231 35.8,2.42307692 35.3153846,2.21538462 C34.8307692,2.00769231 34.3461538,2.21538462 34.1384615,2.7 L32.6153846,6.36923077 C32.4076923,6.78461538 32.6153846,7.33846154 33.1,7.47692308 Z" id="Shape"></path>
                            </g>
                        </g>
                    </g>
                    <path d="M23.3333333,54 C18.1786667,54 14,49.8213333 14,44.6666667 C14,39.512 18.1786667,35.3333333 23.3333333,35.3333333 C23.3333333,30.9153333 26.9153333,27.3333333 31.3333333,27.3333333 C33.7286667,27.3333333 35.8673333,28.3946667 37.3333333,30.0626667 C38.9653333,25.3733333 43.4213333,22 48.6666667,22 C55.294,22 60.6666667,27.3726667 60.6666667,34 C60.6666667,34.196 60.6546667,34.3893333 60.646,34.5833333 C64.544,35.9466667 67.3333333,39.6253333 67.3333333,44 C67.3333333,49.54 62.874,54 57.3333333,54 L40,54 L23.3333333,54 Z" id="Light-Cloud" fill="#FFFFFF"></path>
                    <g id="09d" stroke-width="1" transform="translate(0.000000, 29.000000)">
                        <g id="Page-1" transform="translate(4.000000, 17.000000)">
                            <g id="Group-3" transform="translate(0.000000, 0.673286)">
                                <mask id="mask-5" fill="white">
                                    <use xlink:href="#path-4"></use>
                                </mask>
                                <g id="Clip-2"></g>
                            </g>
                        </g>
                        <path d="M7.35,25 C3.2907,25 0,21.7354167 0,17.7083333 C0,13.68125 3.2907,10.4166667 7.35,10.4166667 C7.35,6.96510417 10.170825,4.16666667 13.65,4.16666667 C15.536325,4.16666667 17.220525,4.99583333 18.375,6.29895833 C19.6602,2.63541667 23.1693,0 27.3,0 C32.519025,0 36.75,4.19739583 36.75,9.375 C36.75,9.528125 36.74055,9.67916667 36.733725,9.83072917 C39.8034,10.8958333 42,13.7697917 42,17.1875 C42,21.515625 38.488275,25 34.125,25 L20.475,25 L7.35,25 Z" id="Dark-Cloud" fill="url(#linearGradient-6)" transform="translate(21.000000, 12.500000) scale(-1, 1) translate(-21.000000, -12.500000) "></path>
                    </g>
                </g>
                <g id="Group" stroke-width="1" transform="translate(27.000000, 44.000000)" stroke="#77C0F0" stroke-linecap="round">
                    <path d="M6.42857143,0.428571429 L0,12" id="Line" stroke-width="3"></path>
                    <path d="M11.8571429,6.42857143 L3.42857143,22" id="Line-Copy" stroke-width="3"></path>
                    <path d="M24.1428571,0.428571429 L17.7142857,12" id="Line-Copy-2" stroke-width="3"></path>
                </g>
            </g>
        </g>
    </g>
</svg>