<svg xmlns="http://www.w3.org/2000/svg" width="24" height="24" viewBox="0 0 24 24">
    <g fill="none" fill-rule="evenodd">
        <path fill="#FFF" d="M8 3h7v18H8z"/>
        <path fill="#FC5252" d="M13.222 19.186a1.732 1.732 0 0 1-2.953-1.226c0-.453.184-.9.506-1.222A1.748 1.748 0 0 1 12 16.23a1.74 1.74 0 0 1 1.73 1.73c0 .458-.183.904-.508 1.226M12 4.653c.748 0 1.354.606 1.354 1.354l-.346 8.077A1.005 1.005 0 0 1 12 15.092c-.454 0-.968-.24-1.008-1.008l-.346-8.077c0-.748.606-1.354 1.354-1.354M12 0C5.372 0 0 5.372 0 12s5.372 12 12 12 12-5.372 12-12S18.628 0 12 0"/>
    </g>
</svg>
