<?xml version="1.0" encoding="UTF-8"?>
<svg width="24px" height="24px" viewBox="0 0 24 24" version="1.1" xmlns="http://www.w3.org/2000/svg" xmlns:xlink="http://www.w3.org/1999/xlink">
    <g id="Page-1" stroke="none" stroke-width="1" fill="none" fill-rule="evenodd">
        <g id="chevron-right" fill-rule="nonzero" fill="#999999">
            <path d="M11.08,16.94 C11.21,17.06 11.36,17.14 11.52,17.14 C11.69,17.14 11.84,17.06 11.96,16.94 L20.86,8.04 C21.02,7.91 21.06,7.76 21.06,7.6 C21.06,7.43 21.02,7.3 20.86,7.16 L19.94,6.2 C19.81,6.08 19.66,6 19.5,6 C19.33,6 19.2,6.08 19.06,6.2 L11.56,13.7 L4.06,6.2 C3.91,6.08 3.76,6 3.6,6 C3.44,6 3.3,6.08 3.16,6.2 L2.2,7.16 C2.07,7.29 2,7.43 2,7.6 C2,7.76 2.07,7.9 2.2,8.04 L11.1,16.94 L11.08,16.94 Z" id="Shape" transform="translate(11.530000, 11.570000) rotate(90.000000) translate(-11.530000, -11.570000) "></path>
        </g>
    </g>
</svg>