<svg xmlns="http://www.w3.org/2000/svg" width="40" height="40" viewBox="0 0 40 40">
    <g fill="none" fill-rule="evenodd">
        <circle cx="20" cy="20" r="20" fill="#F0F0F0"/>
        <path fill="#FC5252" d="M21.004 26.42a1.573 1.573 0 0 1-2.68-1.113c0-.412.166-.817.458-1.11a1.587 1.587 0 0 1 1.113-.462 1.58 1.58 0 0 1 1.571 1.572c0 .415-.166.82-.462 1.112m-1.11-13.194c.68 0 1.23.55 1.23 1.229l-.314 7.333a.913.913 0 0 1-.915.915c-.413 0-.88-.217-.916-.915l-.314-7.333c0-.679.55-1.229 1.23-1.229m0-4.225C13.878 9 9 13.878 9 19.895c0 6.017 4.878 10.895 10.895 10.895 6.017 0 10.895-4.877 10.895-10.895C30.79 13.878 25.912 9 19.895 9"/>
    </g>
</svg>
