<svg xmlns="http://www.w3.org/2000/svg" width="40" height="40" viewBox="0 0 40 40">
    <g fill="none" fill-rule="evenodd">
        <circle cx="20" cy="20" r="20" fill="#FC5252"/>
        <path fill="#FFF" d="M23.003 28.633h-4.371a1.063 1.063 0 0 1-1.061-1.062v-3.509h-3.509A1.061 1.061 0 0 1 13 23.002V17.63c0-.586.476-1.062 1.062-1.062h3.509v-3.507c0-.586.475-1.062 1.061-1.062h4.37c.587 0 1.063.476 1.063 1.062v3.507h3.507c.586 0 1.061.476 1.061 1.062V23c0-.413-.475 1.061-1.061 1.061h-3.507v3.509c-.001.586-.476 1.062-1.062 1.062"/>
    </g>
</svg>
