<?xml version="1.0" encoding="UTF-8"?>
<svg width="32px" height="8px" viewBox="0 0 32 8" version="1.1" xmlns="http://www.w3.org/2000/svg" xmlns:xlink="http://www.w3.org/1999/xlink">
    <!-- Generator: Sketch 43.2 (39069) - http://www.bohemiancoding.com/sketch -->
    <title>Untitled</title>
    <desc>Created with Sketch.</desc>
    <defs></defs>
    <g id="Page-1" stroke="none" stroke-width="1" fill="none" fill-rule="evenodd">
        <g id="more" fill-rule="nonzero" fill="#FC5252">
            <path d="M4,0 C1.79,0 0,1.79 0,4 C0,6.21 1.79,8 4,8 C6.21,8 8,6.21 8,4 C8,1.79 6.21,0 4,0 Z M28,0 C25.79,0 24,1.79 24,4 C24,6.21 25.79,8 28,8 C30.21,8 32,6.21 32,4 C32,1.79 30.21,0 28,0 Z M16,0 C13.79,0 12,1.79 12,4 C12,6.21 13.79,8 16,8 C18.21,8 20,6.21 20,4 C20,1.79 18.21,0 16,0 Z" id="Shape"></path>
        </g>
    </g>
</svg>