<svg width="14px" height="14px" viewBox="0 0 14 14" version="1.1" xmlns="http://www.w3.org/2000/svg"
     xmlns:xlink="http://www.w3.org/1999/xlink">
    <g id="Symbols" stroke="none" stroke-width="1" fill="none" fill-rule="evenodd">
        <g id="AddRowButton" transform="translate(-11.000000, -11.000000)" fill="#222222">
            <g id="Group-2">
                <path d="M11.990778,19 C11.4435864,19 11,18.5561352 11,18 L11,18 C11,17.4477153 11.4509752,17 11.990778,17 L17,17 L17,11.990778 C17,11.4435864 17.4438648,11 18,11 L18,11 C18.5522847,11 19,11.4509752 19,11.990778 L19,17 L24.009222,17 C24.5564136,17 25,17.4438648 25,18 L25,18 C25,18.5522847 24.5490248,19 24.009222,19 L19,19 L19,24.009222 C19,24.5564136 18.5561352,25 18,25 L18,25 C17.4477153,25 17,24.5490248 17,24.009222 L17,19 L11.990778,19 Z"
                      id="plus"></path>
            </g>
        </g>
    </g>
</svg>
