<svg xmlns="http://www.w3.org/2000/svg" width="102" height="17" viewBox="0 0 102 17">
    <g fill="none" fill-rule="evenodd">
        <path stroke="#FFC300" d="M100.775 6.875l-5.588-.48L93 1.276l-2.187 5.13-5.584.471 4.241 3.653-1.275 5.434L93 13.08l4.807 2.884-1.268-5.435 4.236-3.654z"/>
        <path fill="#FFC300" d="M81 6.478l-6.471-.555L72 0l-2.529 5.932L63 6.478l4.914 4.232L66.438 17 72 13.663 77.562 17l-1.467-6.29zM60 6.478l-6.471-.555L51 0l-2.529 5.932L42 6.478l4.914 4.232L45.438 17 51 13.663 56.562 17l-1.467-6.29zM39 6.478l-6.471-.555L30 0l-2.529 5.932L21 6.478l4.914 4.232L24.438 17 30 13.663 35.562 17l-1.467-6.29zM18 6.478l-6.471-.555L9 0 6.471 5.932 0 6.478l4.914 4.232L3.438 17 9 13.663 14.562 17l-1.467-6.29z"/>
    </g>
</svg>
