<?xml version="1.0" encoding="UTF-8"?>
<svg width="72px" height="72px" viewBox="0 0 72 72" version="1.1" xmlns="http://www.w3.org/2000/svg" xmlns:xlink="http://www.w3.org/1999/xlink">
    <!-- Generator: Sketch 44.1 (41455) - http://www.bohemiancoding.com/sketch -->
    <title>02n</title>
    <desc>Created with Sketch.</desc>
    <defs>
        <linearGradient x1="79.0818023%" y1="-11.6691876%" x2="60.5231196%" y2="100%" id="linearGradient-1">
            <stop stop-color="#EFEFEF" offset="0%"></stop>
            <stop stop-color="#D0D0D0" offset="100%"></stop>
        </linearGradient>
        <path d="M25.1897436,5 C12.425641,5 2,15.425641 2,28.1897436 C2,40.9538462 12.425641,51.3794872 25.1897436,51.3794872 C37.9538462,51.3794872 48.3794872,40.9538462 48.3794872,28.1897436 C48.3794872,15.425641 37.9538462,5 25.1897436,5 Z" id="path-2"></path>
        <filter x="-10.8%" y="-10.8%" width="121.6%" height="121.6%" filterUnits="objectBoundingBox" id="filter-3">
            <feOffset dx="10" dy="-6" in="SourceAlpha" result="shadowOffsetInner1"></feOffset>
            <feComposite in="shadowOffsetInner1" in2="SourceAlpha" operator="arithmetic" k2="-1" k3="1" result="shadowInnerInner1"></feComposite>
            <feColorMatrix values="0 0 0 0 0   0 0 0 0 0   0 0 0 0 0  0 0 0 0.0703408062 0" type="matrix" in="shadowInnerInner1"></feColorMatrix>
        </filter>
    </defs>
    <g id="Weather-Icons" stroke="none" stroke-width="1" fill="none" fill-rule="evenodd">
        <g id="02n">
            <g transform="translate(3.000000, 8.000000)">
                <path d="M6.39260588,48.7392435 C6.33616471,48.5696783 6.16907647,48.4566348 6.00142941,48.400113 L4.32495882,48.1740261 L3.59848824,46.6479391 C3.54204706,46.4783739 3.43084118,46.3653304 3.20731176,46.3653304 C3.03966471,46.3653304 2.87201765,46.4783739 2.81613529,46.5914174 L2.08966471,48.1740261 L0.413194118,48.400113 C0.245547059,48.400113 0.0779,48.5696783 0.0220176471,48.7392435 C-0.0338647059,48.9088087 0.0220176471,49.0783739 0.133782353,49.1914174 L1.30675294,50.3783739 L1.02734118,52.0740261 C0.972017647,52.2435913 1.08378235,52.4131565 1.19554706,52.5262 C1.36319412,52.5827217 1.41907647,52.5827217 1.53084118,52.5827217 C1.58616471,52.5827217 1.69848824,52.5827217 1.75437059,52.5262 L3.26263529,51.7348957 L4.77201765,52.5262 C4.93910588,52.5827217 5.10731176,52.5827217 5.27495882,52.4696783 C5.44260588,52.3566348 5.49792941,52.1870696 5.44260588,52.0175043 L5.16319412,50.3218522 L6.33616471,49.1348957 C6.39260588,49.0783739 6.44848824,48.9088087 6.39260588,48.7392435" id="Fill-1" fill="#FFB547" fill-rule="evenodd"></path>
                <path d="M54.6688529,14.8914174 C54.6129706,14.7783739 54.5012059,14.6653304 54.3894412,14.6653304 L53.0488235,14.4957652 L52.4335588,13.3088087 C52.3776765,13.1957652 52.2659118,13.1392435 52.0982647,13.1392435 C51.9311765,13.1392435 51.8188529,13.1957652 51.7629706,13.3088087 L51.1482647,14.4957652 L49.8070882,14.6653304 C49.6958824,14.6653304 49.5276765,14.7783739 49.5276765,14.8914174 C49.4717941,15.0044609 49.5276765,15.1740261 49.6394412,15.2870696 L50.5894412,16.2479391 L50.3659118,17.6044609 C50.3659118,17.7175043 50.4217941,17.8870696 50.5341176,17.9435913 C50.5894412,18.000113 50.6453235,18.000113 50.7570882,18.000113 C50.8135294,18.000113 50.8688529,18.000113 50.9247353,17.9435913 L52.0982647,17.3218522 L53.2717941,17.9435913 C53.3835588,18.000113 53.5512059,18.000113 53.6629706,17.8870696 C53.7747353,17.8305478 53.8306176,17.6609826 53.8306176,17.5479391 L53.6076471,16.1914174 L54.5570882,15.2305478 C54.7252941,15.1740261 54.7252941,15.0609826 54.6688529,14.8914174" id="Fill-3" fill="#FFB547" fill-rule="evenodd"></path>
                <path d="M48.7986,2.71304348 C48.7421588,2.54347826 48.5750706,2.37391304 48.3509824,2.3173913 L46.3951,2.03478261 L45.5015412,0.282608696 C45.3892176,0.113043478 45.2221294,0 44.9980412,0 C44.7750706,0 44.6074235,0.113043478 44.4956588,0.282608696 L43.6009824,2.03478261 L41.6451,2.3173913 C41.4221294,2.37391304 41.2544824,2.48695652 41.1980412,2.71304348 C41.1427176,2.93913043 41.1980412,3.10869565 41.3103647,3.27826087 L42.7074235,4.63478261 L42.3721294,6.61304348 C42.3156882,6.83913043 42.4280118,7.00869565 42.5951,7.12173913 C42.7074235,7.17826087 42.8191882,7.23478261 42.9309529,7.23478261 C43.0421588,7.23478261 43.0986,7.23478261 43.1539235,7.17826087 L44.8868353,6.27391304 L46.6191882,7.17826087 C46.7862765,7.29130435 47.0103647,7.23478261 47.1780118,7.12173913 C47.3451,7.00869565 47.4015412,6.7826087 47.4015412,6.61304348 L47.0656882,4.63478261 L48.4627471,3.27826087 C48.7986,3.16521739 48.8544824,2.93913043 48.7986,2.71304348" id="Fill-6" fill="#FFB547" fill-rule="evenodd"></path>
                <g id="Shape" fill-rule="nonzero">
                    <use fill="url(#linearGradient-1)" fill-rule="evenodd" xlink:href="#path-2"></use>
                    <use fill="black" fill-opacity="1" filter="url(#filter-3)" xlink:href="#path-2"></use>
                </g>
                <path d="M23.3333333,54 C18.1786667,54 14,49.8213333 14,44.6666667 C14,39.512 18.1786667,35.3333333 23.3333333,35.3333333 C23.3333333,30.9153333 26.9153333,27.3333333 31.3333333,27.3333333 C33.7286667,27.3333333 35.8673333,28.3946667 37.3333333,30.0626667 C38.9653333,25.3733333 43.4213333,22 48.6666667,22 C55.294,22 60.6666667,27.3726667 60.6666667,34 C60.6666667,34.196 60.6546667,34.3893333 60.646,34.5833333 C64.544,35.9466667 67.3333333,39.6253333 67.3333333,44 C67.3333333,49.54 62.874,54 57.3333333,54 L40,54 L23.3333333,54 Z" id="Cloud" fill="#F2F2F2" fill-rule="evenodd"></path>
            </g>
        </g>
    </g>
</svg>