<?xml version="1.0" encoding="UTF-8"?>
<svg width="72px" height="72px" viewBox="0 0 72 72" version="1.1" xmlns="http://www.w3.org/2000/svg" xmlns:xlink="http://www.w3.org/1999/xlink">
    <!-- Generator: Sketch 44.1 (41455) - http://www.bohemiancoding.com/sketch -->
    <title>01d</title>
    <desc>Created with Sketch.</desc>
    <defs>
        <linearGradient x1="6.57474508%" y1="6.48982806%" x2="93.5330342%" y2="93.9532646%" id="linearGradient-1">
            <stop stop-color="#FFC671" offset="0%"></stop>
            <stop stop-color="#FFAF38" offset="100%"></stop>
        </linearGradient>
        <path d="M27,10.5230769 C17.9307692,10.5230769 10.5230769,17.9307692 10.5230769,27 C10.5230769,36.0692308 17.9307692,43.4769231 27,43.4769231 C36.0692308,43.4769231 43.4769231,36.0692308 43.4769231,27 C43.4769231,17.9307692 36.0692308,10.5230769 27,10.5230769 Z" id="path-2"></path>
        <filter x="-16.7%" y="-16.7%" width="133.4%" height="133.4%" filterUnits="objectBoundingBox" id="filter-3">
            <feMorphology radius="5" operator="erode" in="SourceAlpha" result="shadowSpreadInner1"></feMorphology>
            <feOffset dx="-4" dy="-6" in="shadowSpreadInner1" result="shadowOffsetInner1"></feOffset>
            <feComposite in="shadowOffsetInner1" in2="SourceAlpha" operator="arithmetic" k2="-1" k3="1" result="shadowInnerInner1"></feComposite>
            <feColorMatrix values="0 0 0 0 1   0 0 0 0 0.722150843   0 0 0 0 0.308850221  0 0 0 1 0" type="matrix" in="shadowInnerInner1"></feColorMatrix>
        </filter>
    </defs>
    <g id="Weather-Icons" stroke="none" stroke-width="1" fill="none" fill-rule="evenodd">
        <g id="01d">
            <g id="weather_sun" transform="translate(9.000000, 9.000000)">
                <g id="Sun">
                    <g id="Shape" fill-rule="nonzero">
                        <use fill="url(#linearGradient-1)" fill-rule="evenodd" xlink:href="#path-2"></use>
                        <use fill="black" fill-opacity="1" filter="url(#filter-3)" xlink:href="#path-2"></use>
                    </g>
                    <g id="Group-7" fill-rule="nonzero" fill="#FFC164">
                        <path d="M27,5.88461538 C27.4846154,5.88461538 27.9,5.46923077 27.9,4.98461538 L27.9,1.10769231 C27.9,0.623076923 27.4846154,0.207692308 27,0.207692308 C26.5153846,0.207692308 26.1,0.623076923 26.1,1.10769231 L26.1,4.98461538 C26.1,5.46923077 26.5153846,5.88461538 27,5.88461538 Z" id="Shape"></path>
                        <path d="M17.7923077,6.99230769 C18,7.47692308 18.4846154,7.68461538 18.9692308,7.47692308 C19.4538462,7.26923077 19.6615385,6.78461538 19.4538462,6.3 L17.9307692,2.76923077 C17.7230769,2.28461538 17.2384615,2.07692308 16.7538462,2.28461538 C16.2692308,2.49230769 16.0615385,2.97692308 16.2692308,3.46153846 L17.7923077,6.99230769 Z" id="Shape"></path>
                        <path d="M10.8,12.0461538 C11.1461538,12.3923077 11.7,12.3923077 12.0461538,12.0461538 C12.3923077,11.7 12.3923077,11.1461538 12.0461538,10.8 L9.27692308,8.03076923 C8.93076923,7.68461538 8.37692308,7.68461538 8.03076923,8.03076923 C7.68461538,8.37692308 7.68461538,8.93076923 8.03076923,9.27692308 L10.8,12.0461538 Z" id="Shape"></path>
                        <path d="M6.99230769,17.7923077 L3.39230769,16.2692308 C2.90769231,16.0615385 2.42307692,16.2692308 2.21538462,16.7538462 C2.00769231,17.2384615 2.21538462,17.7230769 2.7,17.9307692 L6.3,19.4538462 C6.78461538,19.6615385 7.26923077,19.4538462 7.47692308,18.9692308 C7.68461538,18.4846154 7.47692308,17.9307692 6.99230769,17.7923077 Z" id="Shape"></path>
                        <path d="M5.88461538,27 C5.88461538,26.5153846 5.46923077,26.1 4.98461538,26.1 L1.10769231,26.1 C0.623076923,26.1 0.207692308,26.5153846 0.207692308,27 C0.207692308,27.4846154 0.623076923,27.9 1.10769231,27.9 L4.98461538,27.9 C5.46923077,27.9 5.88461538,27.4846154 5.88461538,27 Z" id="Shape"></path>
                        <path d="M6.36923077,34.6153846 L2.76923077,36.0692308 C2.28461538,36.2769231 2.07692308,36.7615385 2.28461538,37.2461538 C2.49230769,37.7307692 2.97692308,37.9384615 3.46153846,37.7307692 L7.06153846,36.2076923 C7.54615385,36 7.75384615,35.5153846 7.54615385,35.0307692 C7.33846154,34.6153846 6.78461538,34.4076923 6.36923077,34.6153846 Z" id="Shape"></path>
                        <path d="M10.8,41.9538462 L8.03076923,44.7230769 C7.68461538,45.0692308 7.68461538,45.6230769 8.03076923,45.9692308 C8.37692308,46.3153846 8.93076923,46.3153846 9.27692308,45.9692308 L12.0461538,43.2 C12.3923077,42.8538462 12.3923077,42.3 12.0461538,41.9538462 C11.7,41.6076923 11.1461538,41.6076923 10.8,41.9538462 Z" id="Shape"></path>
                        <path d="M18.9,46.5230769 C18.4153846,46.3153846 17.9307692,46.5230769 17.7230769,47.0076923 L16.2,50.6076923 C15.9923077,51.0923077 16.2,51.5769231 16.6846154,51.7846154 C17.1692308,51.9923077 17.6538462,51.7846154 17.8615385,51.3 L19.3846154,47.7 C19.5923077,47.2153846 19.3846154,46.6615385 18.9,46.5230769 Z" id="Shape"></path>
                        <path d="M27,48.1153846 C26.5153846,48.1153846 26.1,48.5307692 26.1,49.0153846 L26.1,52.8923077 C26.1,53.3769231 26.5153846,53.7923077 27,53.7923077 C27.4846154,53.7923077 27.9,53.3769231 27.9,52.8923077 L27.9,49.0153846 C27.9,48.5307692 27.4846154,48.1153846 27,48.1153846 Z" id="Shape"></path>
                        <path d="M36.2076923,47.0076923 C36,46.5230769 35.5153846,46.3153846 35.0307692,46.5230769 C34.5461538,46.7307692 34.3384615,47.2153846 34.5461538,47.7 L36.0692308,51.3 C36.2769231,51.7846154 36.7615385,51.9923077 37.2461538,51.7846154 C37.7307692,51.5769231 37.9384615,51.0923077 37.7307692,50.6076923 L36.2076923,47.0076923 Z" id="Shape"></path>
                        <path d="M43.2,41.9538462 C42.8538462,41.6076923 42.3,41.6076923 41.9538462,41.9538462 C41.6076923,42.3 41.6076923,42.8538462 41.9538462,43.2 L44.7230769,45.9692308 C45.0692308,46.3153846 45.6230769,46.3153846 45.9692308,45.9692308 C46.3153846,45.6230769 46.3153846,45.0692308 45.9692308,44.7230769 L43.2,41.9538462 Z" id="Shape"></path>
                        <path d="M51.2307692,36.0692308 L47.6307692,34.6153846 C47.1461538,34.4076923 46.6615385,34.6153846 46.4538462,35.1 C46.2461538,35.5846154 46.4538462,36.0692308 46.9384615,36.2769231 L50.5384615,37.8 C51.0230769,38.0076923 51.5076923,37.8 51.7153846,37.3153846 C51.9230769,36.7615385 51.7153846,36.2769231 51.2307692,36.0692308 Z" id="Shape"></path>
                        <path d="M52.8923077,26.1 L49.0153846,26.1 C48.5307692,26.1 48.1153846,26.5153846 48.1153846,27 C48.1153846,27.4846154 48.5307692,27.9 49.0153846,27.9 L52.8923077,27.9 C53.3769231,27.9 53.7923077,27.4846154 53.7923077,27 C53.7923077,26.5153846 53.3769231,26.1 52.8923077,26.1 Z" id="Shape"></path>
                        <path d="M47.6307692,19.3846154 L51.2307692,17.8615385 C51.7153846,17.6538462 51.9230769,17.1692308 51.7153846,16.6846154 C51.5076923,16.2 51.0230769,15.9923077 50.5384615,16.2 L46.9384615,17.7230769 C46.4538462,17.9307692 46.2461538,18.4153846 46.4538462,18.9 C46.6615385,19.3846154 47.2153846,19.5923077 47.6307692,19.3846154 Z" id="Shape"></path>
                        <path d="M44.6538462,8.1 L41.8846154,10.8692308 C41.5384615,11.2153846 41.5384615,11.7692308 41.8846154,12.1153846 C42.2307692,12.4615385 42.7846154,12.4615385 43.1307692,12.1153846 L45.9,9.34615385 C46.2461538,9 46.2461538,8.44615385 45.9,8.1 C45.5538462,7.75384615 45,7.75384615 44.6538462,8.1 Z" id="Shape"></path>
                        <path d="M35.1,7.47692308 C35.5846154,7.68461538 36.0692308,7.47692308 36.2769231,6.99230769 L37.8,3.39230769 C38.0076923,2.90769231 37.8,2.42307692 37.3153846,2.21538462 C36.8307692,2.00769231 36.3461538,2.21538462 36.1384615,2.7 L34.6153846,6.36923077 C34.4076923,6.78461538 34.6153846,7.33846154 35.1,7.47692308 Z" id="Shape"></path>
                    </g>
                </g>
            </g>
        </g>
    </g>
</svg>