<?xml version="1.0" encoding="UTF-8"?>
<svg width="72px" height="72px" viewBox="0 0 72 72" version="1.1" xmlns="http://www.w3.org/2000/svg" xmlns:xlink="http://www.w3.org/1999/xlink">
    <!-- Generator: Sketch 44.1 (41455) - http://www.bohemiancoding.com/sketch -->
    <title>50n</title>
    <desc>Created with Sketch.</desc>
    <defs></defs>
    <g id="Weather-Icons" stroke="none" stroke-width="1" fill="none" fill-rule="evenodd" stroke-linecap="square" stroke-linejoin="round">
        <g id="50n" stroke="#FFFFFF" stroke-width="3">
            <g transform="translate(9.000000, 24.000000)" id="Path-2">
                <path d="M0.733398438,22.9630216 C4.60266279,22.9985078 7.58303826,23.016251 9.67452483,23.016251 C12.8117547,23.016251 15.4784214,18.9630216 18.6156512,18.9630216 C21.7528811,18.9630216 24.4195478,23.016251 27.5567776,23.016251 C30.6940075,23.016251 33.3606742,18.9630216 36.497904,18.9630216 C39.6351339,18.9630216 42.3018005,23.016251 45.4390304,23.016251 C47.530517,23.016251 50.5108925,22.9985078 54.3801568,22.9630216" opacity="0.8"></path>
                <path d="M0.733398438,16.9630216 C4.60266279,16.9985078 7.58303826,17.016251 9.67452483,17.016251 C12.8117547,17.016251 15.4784214,12.9630216 18.6156512,12.9630216 C21.7528811,12.9630216 24.4195478,17.016251 27.5567776,17.016251 C30.6940075,17.016251 33.3606742,12.9630216 36.497904,12.9630216 C39.6351339,12.9630216 42.3018005,17.016251 45.4390304,17.016251 C47.530517,17.016251 50.5108925,16.9985078 54.3801568,16.9630216" opacity="0.6"></path>
                <path d="M0.733398438,10.9630216 C4.60266279,10.9985078 7.58303826,11.016251 9.67452483,11.016251 C12.8117547,11.016251 15.4784214,6.96302159 18.6156512,6.96302159 C21.7528811,6.96302159 24.4195478,11.016251 27.5567776,11.016251 C30.6940075,11.016251 33.3606742,6.96302159 36.497904,6.96302159 C39.6351339,6.96302159 42.3018005,11.016251 45.4390304,11.016251 C47.530517,11.016251 50.5108925,10.9985078 54.3801568,10.9630216" opacity="0.4"></path>
                <path d="M0.733398438,4.96302159 C4.60266279,4.99850784 7.58303826,5.01625096 9.67452483,5.01625096 C12.8117547,5.01625096 15.4784214,0.963021593 18.6156512,0.963021593 C21.7528811,0.963021593 24.4195478,5.01625096 27.5567776,5.01625096 C30.6940075,5.01625096 33.3606742,0.963021593 36.497904,0.963021593 C39.6351339,0.963021593 42.3018005,5.01625096 45.4390304,5.01625096 C47.530517,5.01625096 50.5108925,4.99850784 54.3801568,4.96302159" opacity="0.2"></path>
            </g>
        </g>
    </g>
</svg>