<?xml version="1.0" encoding="UTF-8"?>
<svg width="72px" height="72px" viewBox="0 0 72 72" version="1.1" xmlns="http://www.w3.org/2000/svg" xmlns:xlink="http://www.w3.org/1999/xlink">
    <!-- Generator: Sketch 44.1 (41455) - http://www.bohemiancoding.com/sketch -->
    <title>10n</title>
    <desc>Created with Sketch.</desc>
    <defs>
        <linearGradient x1="79.0818023%" y1="-11.6691876%" x2="60.5231196%" y2="100%" id="linearGradient-1">
            <stop stop-color="#EFEFEF" offset="0%"></stop>
            <stop stop-color="#D0D0D0" offset="100%"></stop>
        </linearGradient>
        <path d="M30.4327477,3.71042536 C20.3686946,3.71042536 12.1484375,11.4471379 12.1484375,20.9191879 C12.1484375,30.3912379 20.3686946,38.1279505 30.4327477,38.1279505 C40.4968008,38.1279505 48.7170579,30.3912379 48.7170579,20.9191879 C48.7170579,11.4471379 40.4968008,3.71042536 30.4327477,3.71042536 Z" id="path-2"></path>
        <filter x="-13.7%" y="-14.5%" width="127.3%" height="129.1%" filterUnits="objectBoundingBox" id="filter-3">
            <feOffset dx="10" dy="-6" in="SourceAlpha" result="shadowOffsetInner1"></feOffset>
            <feComposite in="shadowOffsetInner1" in2="SourceAlpha" operator="arithmetic" k2="-1" k3="1" result="shadowInnerInner1"></feComposite>
            <feColorMatrix values="0 0 0 0 0   0 0 0 0 0   0 0 0 0 0  0 0 0 0.0703408062 0" type="matrix" in="shadowInnerInner1"></feColorMatrix>
        </filter>
        <linearGradient x1="50%" y1="-110.546875%" x2="50%" y2="50%" id="linearGradient-4">
            <stop stop-color="#FFFFFF" offset="0%"></stop>
            <stop stop-color="#D0D0D0" offset="100%"></stop>
        </linearGradient>
    </defs>
    <g id="Weather-Icons" stroke="none" stroke-width="1" fill="none" fill-rule="evenodd">
        <g id="10n">
            <g transform="translate(3.000000, 4.000000)">
                <path d="M53.6760052,11.0506986 C53.6319439,10.9668107 53.5438213,10.8829228 53.4556987,10.8829228 L52.398668,10.757091 L51.9135531,9.87626827 C51.8694918,9.79238039 51.7813692,9.75043645 51.6491853,9.75043645 C51.517442,9.75043645 51.4288788,9.79238039 51.3848175,9.87626827 L50.9001432,10.757091 L49.842672,10.8829228 C49.75499,10.8829228 49.6223655,10.9668107 49.6223655,11.0506986 C49.5783041,11.1345864 49.6223655,11.2604183 49.7104881,11.3443061 L50.4595302,12.0573531 L50.283285,13.0640076 C50.283285,13.1478955 50.3273463,13.2737273 50.4159095,13.3156713 C50.4595302,13.3576152 50.5035915,13.3576152 50.5917141,13.3576152 C50.636216,13.3576152 50.6798367,13.3576152 50.723898,13.3156713 L51.6491853,12.8542879 L52.5744726,13.3156713 C52.6625952,13.3576152 52.7947791,13.3576152 52.8829017,13.2737273 C52.9710243,13.2317834 53.0150856,13.1059516 53.0150856,13.0220637 L52.8392811,12.0154092 L53.5878826,11.3023622 C53.7205071,11.2604183 53.7205071,11.1765304 53.6760052,11.0506986" id="Fill-3" fill="#FFB547" fill-rule="evenodd"></path>
                <path d="M49.0475139,2.01330907 C49.003012,1.88747725 48.8712687,1.76164543 48.6945829,1.71970149 L47.1524373,1.5099818 L46.4478971,0.209719694 C46.3593339,0.0838878778 46.2275906,0 46.0509048,0 C45.8751002,0 45.7429163,0.0838878778 45.6547937,0.209719694 L44.9493723,1.5099818 L43.4072267,1.71970149 C43.2314221,1.76164543 43.0992382,1.84553331 43.0547363,2.01330907 C43.0111156,2.18108482 43.0547363,2.30691664 43.1432995,2.43274846 L44.2448321,3.43940299 L43.9804643,4.90744085 C43.9359623,5.07521661 44.0245256,5.20104842 44.1562688,5.2849363 C44.2448321,5.32688024 44.3329547,5.36882418 44.4210773,5.36882418 C44.5087593,5.36882418 44.5532612,5.36882418 44.5968819,5.32688024 L45.9632228,4.65577722 L47.3291231,5.32688024 C47.4608664,5.41076812 47.6375522,5.36882418 47.7697362,5.2849363 C47.9014794,5.20104842 47.9459814,5.03327267 47.9459814,4.90744085 L47.6811729,3.43940299 L48.7827055,2.43274846 C49.0475139,2.34886058 49.0915752,2.18108482 49.0475139,2.01330907" id="Fill-6" fill="#FFB547" fill-rule="evenodd"></path>
                <g id="Shape" fill-rule="nonzero">
                    <use fill="url(#linearGradient-1)" fill-rule="evenodd" xlink:href="#path-2"></use>
                    <use fill="black" fill-opacity="1" filter="url(#filter-3)" xlink:href="#path-2"></use>
                </g>
                <path d="M23.3333333,47.0588235 C18.1786667,47.0588235 14,43.1259608 14,38.2745098 C14,33.4230588 18.1786667,29.4901961 23.3333333,29.4901961 C23.3333333,25.3320784 26.9153333,21.9607843 31.3333333,21.9607843 C33.7286667,21.9607843 35.8673333,22.9596863 37.3333333,24.5295686 C38.9653333,20.1160784 43.4213333,16.9411765 48.6666667,16.9411765 C55.294,16.9411765 60.6666667,21.9978039 60.6666667,28.2352941 C60.6666667,28.4197647 60.6546667,28.6017255 60.646,28.7843137 C64.544,30.067451 67.3333333,33.5297255 67.3333333,37.6470588 C67.3333333,42.8611765 62.874,47.0588235 57.3333333,47.0588235 L40,47.0588235 L23.3333333,47.0588235 Z" id="Light-Cloud" fill="#FFFFFF" fill-rule="evenodd"></path>
                <path d="M7.35,47.0588235 C3.2907,47.0588235 0,43.9862745 0,40.1960784 C0,36.4058824 3.2907,33.3333333 7.35,33.3333333 C7.35,30.0848039 10.170825,27.4509804 13.65,27.4509804 C15.536325,27.4509804 17.220525,28.2313725 18.375,29.4578431 C19.6602,26.0098039 23.1693,23.5294118 27.3,23.5294118 C32.519025,23.5294118 36.75,27.479902 36.75,32.3529412 C36.75,32.4970588 36.74055,32.6392157 36.733725,32.7818627 C39.8034,33.7843137 42,36.4892157 42,39.7058824 C42,43.7794118 38.488275,47.0588235 34.125,47.0588235 L20.475,47.0588235 L7.35,47.0588235 Z" id="Dark-Cloud" fill="url(#linearGradient-4)" fill-rule="evenodd" transform="translate(21.000000, 35.294118) scale(-1, 1) translate(-21.000000, -35.294118) "></path>
                <g id="Group" stroke-width="1" fill-rule="evenodd" transform="translate(27.000000, 41.411765)" stroke="#77C0F0" stroke-linecap="round">
                    <path d="M6.42857143,0.403361345 L0,11.2941176" id="Line" stroke-width="3"></path>
                    <path d="M11.8571429,6.05042017 L3.42857143,20.7058824" id="Line-Copy" stroke-width="3"></path>
                    <path d="M24.1428571,0.403361345 L17.7142857,11.2941176" id="Line-Copy-2" stroke-width="3"></path>
                </g>
            </g>
        </g>
    </g>
</svg>